<svg xmlns="http://www.w3.org/2000/svg" width="36.5" height="35.5" viewBox="0 0 21.39 27.38">
  <defs>
    <style>
      .cls-1 {
        fill: #fdfefe;
      }

      .cls-2 {
        fill: #b3b4b4;
      }
    </style>
  </defs>
  <g id="Layer_2" data-name="Layer 2">
    <g id="Layer_1-2" data-name="Layer 1">
      <path class="cls-1" d="M20.47,12.41H13.63a4.3,4.3,0,0,0-4.29,4.31V27.38A10.71,10.71,0,0,1,0,16.77c0-7,6.32-12,10.69-16.77C14.3,3.52,18.63,7.6,20.47,12.41Z"/>
      <path class="cls-1" d="M21,21a10.13,10.13,0,0,1-8.52,6.36V21Z"/>
      <path class="cls-2" d="M21.39,17.13c0,.36,0,.71-.05,1.06H12.17V16.72a1.46,1.46,0,0,1,1.46-1.47h7.61A11.82,11.82,0,0,1,21.39,17.13Z"/>
    </g>
  </g>
</svg>
