<svg xmlns="http://www.w3.org/2000/svg" width="138.5" height="32.5" viewBox="0 0 141.77 27.46">
  <defs>
    <style>
      .cls-1 {
        fill: #fdfefe;
      }
    </style>
  </defs>
  <g id="Layer_2" data-name="Layer 2">
    <g id="Layer_1-2" data-name="Layer 1">
      <g>
        <path class="cls-1" d="M25.91,1.52V6.14H7A2.39,2.39,0,0,0,4.62,8.53v2.4H21.29v4.62H4.6V27.43H0V8.53a7,7,0,0,1,7-7Z"/>
        <path class="cls-1" d="M51.39,14.48a13,13,0,1,1-13-12.95A13,13,0,0,1,51.39,14.48Zm-4.62,0a8.34,8.34,0,1,0-8.34,8.34A8.35,8.35,0,0,0,46.77,14.48Z"/>
        <path class="cls-1" d="M78.71.19V27.44H74.77V9.71L69.4,15.08l-1.29,1.28-1.5,1.5L58.27,9.52h0l-4-3.94V0L66.61,12.29ZM54.32,8.36l4,4V27.44h-4Z"/>
        <path class="cls-1" d="M107.55,14.48a13,13,0,1,1-13-12.95A13,13,0,0,1,107.55,14.48Zm-4.62,0a8.34,8.34,0,1,0-8.34,8.34A8.35,8.35,0,0,0,102.93,14.48Z"/>
        <path class="cls-1" d="M133.45,22.8v4.62h-20l0,0h-5.83l0,0,3.57-4.62,6.37-8.27,2.93-3.77L124,6.17H107.52V1.54h20v0h5.82v0l-3.58,4.63-6.45,8.36-2.91,3.77L117,22.8Z"/>
        <path class="cls-1" d="M137.15,27.44V1.53h4.62V27.44Z"/>
      </g>
    </g>
  </g>
</svg>
